<?xml version="1.0" encoding="utf-8"?>
<!-- Generator: Adobe Illustrator 23.0.6, SVG Export Plug-In . SVG Version: 6.00 Build 0)  -->
<svg version="1.1" id="Ebene_1" xmlns="http://www.w3.org/2000/svg" xmlns:xlink="http://www.w3.org/1999/xlink" x="0px" y="0px"
	 viewBox="0 0 198.4 28.4" style="enable-background:new 0 0 198.4 28.4;" xml:space="preserve">
<style type="text/css">
	.st0{fill:#FFFFFF;}
</style>
<g>
	<path class="st0" d="M118.6,87c0.3,0,0.3,0.1,0.3,0.3V91c0,0.2,0,0.3-0.3,0.3h-0.8c-0.3,0-0.3-0.1-0.3-0.3v-0.9h-6.7v1h1.3
		c0.2,0,0.2,0.1,0.2,0.2v0.8c0,0.2,0,0.2-0.2,0.2h-2.6c-0.2,0-0.2,0-0.2-0.2v-6c0-0.2,0-0.2,0.2-0.2h2.6c0.2,0,0.2,0.1,0.2,0.2v0.8
		c0,0.2,0,0.2-0.2,0.2h-1.3v1h6.7v-0.9c0-0.2,0-0.3,0.3-0.3L118.6,87"/>
	<path class="st0" d="M118.6,72.6c0.3,0,0.3,0,0.3,0.3v5.6c0,0.2,0,0.3-0.3,0.3h-0.8c-0.3,0-0.3-0.1-0.3-0.3v-0.7h-6.9v0.7
		c0,0.2,0,0.3-0.3,0.3h-0.8c-0.3,0-0.3-0.1-0.3-0.3v-5.6c0-0.2,0-0.3,0.2-0.3h2.1c0.3,0,0.3,0.1,0.3,0.3v0.9c0,0.2,0,0.3-0.3,0.3
		h-0.9v1.8h2.3v-2.4c0-0.3,0-0.3,0.3-0.3h0.9c0.3,0,0.3,0.1,0.3,0.3v2.4h2.7v-1.8h-1c-0.2,0-0.3,0-0.3-0.3v-0.9c0-0.3,0-0.3,0.3-0.3
		H118.6"/>
	<path class="st0" d="M118.3,58.8c0.4,0,0.8,1.2,0.8,2.4c0,2.6-1.6,3.8-4.9,3.8c-3.2,0-5.1-1.2-5.1-3.8c0-1,0.4-2.3,0.9-2.3h1.9
		c0.2,0,0.2,0.1,0.2,0.2v1c0,0.2,0,0.2-0.2,0.2h-1.2c-0.1,0.2-0.1,0.5-0.1,0.7c0,1.3,0.8,1.9,3.2,1.9c2.4,0,3.8-0.3,3.8-2
		c0-0.3,0-0.5-0.1-0.7h-1.3c-0.2,0-0.2,0-0.2-0.2v-1c0-0.2,0.1-0.2,0.2-0.2L118.3,58.8"/>
	<path class="st0" d="M118.6,43c0.3,0,0.3,0.1,0.3,0.3v3.3c0,0.2,0,0.3-0.3,0.3h-0.8c-0.3,0-0.3-0.1-0.3-0.3v-0.7h-2.8v2.7h2.8v-0.7
		c0-0.2,0-0.3,0.3-0.3h0.8c0.3,0,0.3,0.1,0.3,0.3v3.3c0,0.2,0,0.3-0.3,0.3h-0.8c-0.3,0-0.3-0.1-0.3-0.3v-0.7h-6.9v0.7
		c0,0.2,0,0.3-0.3,0.3h-0.8c-0.3,0-0.3-0.1-0.3-0.3v-3.3c0-0.2,0-0.3,0.3-0.3h0.8c0.3,0,0.3,0.1,0.3,0.3v0.7h2.5v-2.7h-2.5v0.7
		c0,0.2,0,0.3-0.3,0.3h-0.8c-0.3,0-0.3-0.1-0.3-0.3v-3.3c0-0.2,0-0.3,0.3-0.3h0.8c0.3,0,0.3,0.1,0.3,0.3V44h6.9v-0.7
		c0-0.2,0-0.3,0.3-0.3H118.6"/>
	<path class="st0" d="M118.6,28c0.3,0,0.3,0,0.3,0.3v0.9c0,0.2,0,0.2-0.2,0.3l-4.8,2.6c-0.8,0.4-1.1,0.6-1.9,0.8l0,0
		c0.5,0,0.9-0.1,1.5-0.1h4v-0.7c0-0.2,0-0.3,0.3-0.3h0.8c0.3,0,0.3,0.1,0.3,0.3v3c0,0.2,0,0.3-0.3,0.3h-0.8c-0.3,0-0.3-0.1-0.3-0.3
		v-0.7h-6.9v0.7c0,0.2,0,0.3-0.3,0.3h-0.8c-0.3,0-0.3-0.1-0.3-0.3v-2.1c0-0.2,0-0.2,0.2-0.3l4.3-2.3c0.7-0.4,1.4-0.7,2-0.8l0,0
		c-0.4,0-1.4,0.1-1.8,0.1h-3.4v0.7c0,0.2,0,0.3-0.3,0.3h-0.8c-0.3,0-0.3-0.1-0.3-0.3v-3c0-0.2,0-0.3,0.3-0.3h0.8
		c0.3,0,0.3,0.1,0.3,0.3v0.7L118.6,28"/>
	<path class="st0" d="M114.2,15c-2.2,0-3.6,0.4-3.6,1.5c0,1,1.4,1.5,3.6,1.5c2.2,0,3.5-0.4,3.5-1.5S116.3,15,114.2,15L114.2,15z
		 M119.1,16.5c0,2.2-1.6,3.5-5,3.5c-3.4,0-5-1.3-5-3.5c0-2.1,1.6-3.5,5-3.5C117.5,13,119.1,14.3,119.1,16.5"/>
	<path class="st0" d="M110.8,4.5v0.7c0,0.2,0,0.3-0.3,0.3h-0.8c-0.3,0-0.3-0.1-0.3-0.3V1.8c0-0.2,0-0.3,0.3-0.3h0.8
		c0.3,0,0.3,0.1,0.3,0.3v0.8h6.7v-2l-1.1-0.3c-0.2,0-0.3-0.1-0.3-0.2s0-0.1,0-0.2l0.2-0.9c0-0.2,0.1-0.3,0.2-0.3c0.1,0,0.1,0,0.2,0
		l2,0.4c0.2,0,0.3,0.1,0.3,0.3V5c0,0.2,0,0.3-0.3,0.3h-0.8c-0.3,0-0.3-0.1-0.3-0.3V4.4L110.8,4.5"/>
	<path class="st0" d="M114.2-13.4c-2.2,0-3.6,0.4-3.6,1.5c0,1,1.4,1.5,3.6,1.5c2.2,0,3.5-0.4,3.5-1.5S116.3-13.4,114.2-13.4
		L114.2-13.4z M119.1-11.9c0,2.2-1.6,3.5-5,3.5c-3.4,0-5-1.3-5-3.5s1.6-3.5,5-3.5C117.5-15.4,119.1-14,119.1-11.9"/>
	<path class="st0" d="M118-29.4c0.6,0,1.1,1.6,1.1,2.8c0,2.5-1.6,3.7-5,3.7c-3.3,0-5.1-1.3-5.1-3.7c0-1.1,0.4-2.6,1-2.6h1.8
		c0.2,0,0.2,0,0.2,0.2v1c0,0.2,0,0.2-0.2,0.2h-1.1c-0.1,0.3-0.2,0.6-0.2,0.9c0,1.4,1.3,1.9,3.5,1.9c2.2,0,3.6-0.4,3.6-1.9
		c0-0.5-0.2-0.9-0.2-1h-2.2v1c0,0.2,0,0.3-0.3,0.3h-0.8c-0.3,0-0.3-0.1-0.3-0.3v-3.4c0-0.2,0-0.3,0.3-0.3h0.8c0.3,0,0.3,0.1,0.3,0.3
		v0.7h2.8"/>
	<path class="st0" d="M118.6-43.2c0.3,0,0.3,0.1,0.3,0.3v3.8c0,0.2,0,0.3-0.3,0.3h-0.8c-0.3,0-0.3-0.1-0.3-0.3v-0.9h-2.6l-4.3,2.2
		v0.4c0,0.2,0,0.2-0.2,0.2h-0.9c-0.2,0-0.2,0-0.2-0.2V-39c0-0.2,0-0.2,0.2-0.3l2.2-1.1c0.5-0.2,1.1-0.5,1.6-0.6l0,0
		c-0.5-0.1-1.1-0.3-1.6-0.6l-2.2-1.1c-0.2-0.1-0.2-0.1-0.2-0.3v-1.5c0-0.2,0-0.2,0.2-0.2h0.9c0.2,0,0.2,0,0.2,0.2v0.4l4.3,2.1h2.6
		v-0.9c0-0.2,0-0.3,0.3-0.3L118.6-43.2"/>
	<path class="st0" d="M118.6-71.5c0.3,0,0.3,0.1,0.3,0.3v2.9c0,0.2,0,0.3-0.3,0.3h-0.8c-0.3,0-0.3-0.1-0.3-0.3V-69l-3.7,0.1
		c-0.5,0-1.7,0-2.2,0l0,0c0.5,0.1,1.7,0.3,2.2,0.5l2.7,0.8c0.2,0.1,0.2,0.1,0.2,0.3v0.9c0,0.2,0,0.2-0.2,0.3l-2.7,0.8
		c-0.5,0.2-1.7,0.4-2.2,0.5l0,0c0.5,0,1.7,0,2.2,0l3.7,0.2v-0.6c0-0.2,0-0.3,0.3-0.3h0.8c0.3,0,0.3,0.1,0.3,0.3v2.9
		c0,0.2,0,0.3-0.3,0.3h-0.8c-0.3,0-0.3-0.1-0.3-0.3v-0.6l-6.9-0.3v0.6c0,0.2,0,0.3-0.3,0.3h-0.8c-0.3,0-0.3-0.1-0.3-0.3v-2.4
		c0-0.2,0-0.2,0.2-0.3l3.5-1.1c0.7-0.2,1.1-0.3,1.7-0.4l0,0c-0.5-0.1-1-0.2-1.7-0.4l-3.5-1.1c-0.2-0.1-0.2-0.1-0.2-0.3v-2.4
		c0-0.2,0-0.3,0.3-0.3h0.8c0.3,0,0.3,0.1,0.3,0.3v0.7l6.9-0.3v-0.6c0-0.2,0-0.3,0.3-0.3L118.6-71.5"/>
	<path class="st0" d="M118.6-85c0.3,0,0.3,0,0.3,0.3v5.6c0,0.2,0,0.3-0.3,0.3h-0.8c-0.3,0-0.3-0.1-0.3-0.3v-0.7h-6.9v0.7
		c0,0.2,0,0.3-0.3,0.3h-0.8c-0.3,0-0.3-0.1-0.3-0.3v-5.6c0-0.2,0-0.3,0.2-0.3h2.1c0.3,0,0.3,0.1,0.3,0.3v0.9c0,0.2,0,0.3-0.3,0.3
		h-0.9v1.8h2.3v-2.4c0-0.3,0-0.3,0.3-0.3h0.9c0.3,0,0.3,0.1,0.3,0.3v2.4h2.7v-1.8h-1c-0.2,0-0.3,0-0.3-0.3v-0.9c0-0.3,0-0.3,0.3-0.3
		H118.6"/>
	<path class="st0" d="M118.6-98.8c0.3,0,0.3,0,0.3,0.3v5.6c0,0.2,0,0.3-0.3,0.3h-0.8c-0.3,0-0.3-0.1-0.3-0.3v-0.7h-6.9v0.7
		c0,0.2,0,0.3-0.3,0.3h-0.8c-0.3,0-0.3-0.1-0.3-0.3v-5.6c0-0.2,0-0.3,0.2-0.3h2.1c0.3,0,0.3,0.1,0.3,0.3v1c0,0.2,0,0.3-0.3,0.3h-0.9
		v1.7h2.3v-2.4c0-0.3,0-0.3,0.3-0.3h0.9c0.3,0,0.3,0.1,0.3,0.3v2.4h2.7v-1.8h-1c-0.2,0-0.3,0-0.3-0.3v-0.9c0-0.3,0-0.3,0.3-0.3
		H118.6"/>
	<path class="st0" d="M118.6-111.7c0.3,0,0.3,0.1,0.3,0.3v3.7c0,0.2,0,0.3-0.3,0.3h-0.8c-0.3,0-0.3-0.1-0.3-0.3v-0.9h-6.7v1h1.3
		c0.2,0,0.2,0.1,0.2,0.2v0.8c0,0.2,0,0.2-0.2,0.2h-2.6c-0.2,0-0.2,0-0.2-0.2v-6c0-0.2,0-0.2,0.2-0.2h2.6c0.2,0,0.2,0.1,0.2,0.2v0.8
		c0,0.2,0,0.2-0.2,0.2h-1.3v1h6.7v-0.9c0-0.2,0-0.3,0.3-0.3L118.6-111.7"/>
	<path class="st0" d="M110.8-123.8c-0.1,0.2-0.2,0.5-0.2,0.9c0,0.6,0.3,1.3,1.1,1.3c1.1,0,1.3-1.6,2.2-2.9c0.5-0.7,1.3-1.2,2.3-1.2
		c1.8,0,2.9,1.3,2.9,3c0,1-0.3,2.9-0.9,2.9h-2.1c-0.2,0-0.2,0-0.2-0.2v-1c0-0.2,0-0.2,0.2-0.2h1.3c0.1-0.2,0.3-0.7,0.3-1.3
		c0-0.8-0.4-1.3-1.3-1.3c-1.2,0-1.4,1.4-2.2,2.8c-0.4,0.7-1,1.2-2.2,1.2c-2,0-2.8-1.4-2.8-3.1c0-1,0.4-2.5,0.9-2.5h1.9
		c0.2,0,0.2,0.1,0.2,0.2v1c0,0.2,0,0.2-0.2,0.2h-1.2"/>
	<path class="st0" d="M110.8-147.4c-0.1,0.2-0.2,0.5-0.2,0.9c0,0.6,0.3,1.3,1.1,1.3c1.1,0,1.3-1.6,2.2-2.9c0.5-0.7,1.3-1.2,2.3-1.2
		c1.8,0,2.9,1.3,2.9,3c0,1-0.3,2.9-0.9,2.9h-2.1c-0.2,0-0.2,0-0.2-0.2v-1c0-0.2,0-0.2,0.2-0.2h1.3c0.1-0.2,0.3-0.7,0.3-1.3
		c0-0.8-0.4-1.3-1.3-1.3c-1.2,0-1.4,1.4-2.2,2.8c-0.4,0.7-1,1.2-2.2,1.2c-2,0-2.8-1.5-2.8-3.1c0-1,0.4-2.5,0.9-2.5h1.9
		c0.2,0,0.2,0.1,0.2,0.2v1c0,0.2,0,0.2-0.2,0.2h-1.2"/>
	<path class="st0" d="M113.7-159.8c0-0.8-0.1-1.6-1.5-1.6c-1.2,0-1.3,0.7-1.3,1.5v0.6h2.8V-159.8L113.7-159.8z M118.6-160.7
		c0.3,0,0.3,0.1,0.3,0.3v3.5c0,0.2,0,0.3-0.3,0.3h-0.8c-0.3,0-0.3-0.1-0.3-0.3v-0.7h-6.9v0.7c0,0.2,0,0.3-0.3,0.3h-0.8
		c-0.3,0-0.3-0.1-0.3-0.3v-3.3c0-1.1,0-3.2,2.6-3.2c2.3,0,3.1,1.7,3.1,3.2v0.7h2.6v-0.9c0-0.2,0-0.3,0.3-0.3L118.6-160.7"/>
	<path class="st0" d="M118.6-174.6c0.3,0,0.3,0.1,0.3,0.3v3.3c0,0.2,0,0.3-0.3,0.3h-0.8c-0.3,0-0.3-0.1-0.3-0.3v-0.7h-6.9v0.7
		c0,0.2,0,0.3-0.3,0.3h-0.8c-0.3,0-0.3-0.1-0.3-0.3v-3.3c0-0.2,0-0.3,0.3-0.3h0.8c0.3,0,0.3,0.1,0.3,0.3v0.7h6.9v-0.7
		c0-0.2,0-0.3,0.3-0.3H118.6"/>
	<path class="st0" d="M113.5-185.3c0-0.9-0.1-1.7-1.4-1.7c-1.2,0-1.3,0.8-1.3,1.5v0.5h2.7V-185.3L113.5-185.3z M118.6-189.8
		c0.3,0,0.3,0.1,0.3,0.3v1.8c0,0.2,0,0.2-0.2,0.3l-3.7,1.9v0.7h2.5v-0.7c0-0.2,0-0.3,0.3-0.3h0.8c0.3,0,0.3,0.1,0.3,0.3v3.2
		c0,0.2,0,0.3-0.3,0.3h-0.8c-0.3,0-0.3-0.1-0.3-0.3v-0.7h-6.9v0.7c0,0.2,0,0.3-0.3,0.3h-0.8c-0.3,0-0.3-0.1-0.3-0.3v-3.3
		c0-1.1,0.1-3.2,2.7-3.2c1.8,0,2.3,1.1,2.6,1.6l2.9-1.7v-0.6c0-0.2,0-0.3,0.3-0.3L118.6-189.8"/>
	<path class="st0" d="M118.6-200.8c0.3,0,0.3,0.1,0.3,0.3v3.3c0,0.2,0,0.3-0.3,0.3h-0.8c-0.3,0-0.3-0.1-0.3-0.3v-0.7h-6.9v0.7
		c0,0.2,0,0.3-0.3,0.3h-0.8c-0.3,0-0.3-0.1-0.3-0.3v-3.3c0-0.2,0-0.3,0.3-0.3h0.8c0.3,0,0.3,0.1,0.3,0.3v0.7h6.9v-0.7
		c0-0.2,0-0.3,0.3-0.3H118.6"/>
	<path class="st0" d="M118.6-213.4c0.3,0,0.3,0.1,0.3,0.3v3.7c0,0.2,0,0.3-0.3,0.3h-0.8c-0.3,0-0.3-0.1-0.3-0.3v-0.9h-6.7v1h1.3
		c0.2,0,0.2,0.1,0.2,0.2v0.8c0,0.2,0,0.2-0.2,0.2h-2.6c-0.2,0-0.2,0-0.2-0.2v-6c0-0.2,0-0.2,0.2-0.2h2.6c0.2,0,0.2,0.1,0.2,0.2v0.8
		c0,0.2,0,0.2-0.2,0.2h-1.3v1h6.7v-0.9c0-0.2,0-0.3,0.3-0.3L118.6-213.4"/>
	<path class="st0" d="M90.5,185.6c0,2.2-1.8,4-4,4c-2.2,0-4-1.8-4-4s1.8-4,4-4C88.8,181.6,90.5,183.4,90.5,185.6L90.5,185.6z
		 M76.9,185.6c0,5.4,4.3,9.7,9.7,9.7c5.4,0,9.7-4.3,9.7-9.7c0-5.4-4.3-9.7-9.7-9.7C81.2,175.9,76.9,180.1,76.9,185.6"/>
	<path class="st0" d="M88.3,148.7c1.3,0.7,2.2,2,2.2,3.5c0,2.2-1.8,4-4,4c-2.2,0-4-1.8-4-4c0-1.5,0.9-2.9,2.2-3.5v-6
		c-4.5,0.8-7.9,4.8-7.9,9.5c0,5.4,4.3,9.7,9.7,9.7c5.4,0,9.7-4.3,9.7-9.7c0-4.7-3.4-8.7-7.9-9.5V148.7"/>
	<path class="st0" d="M90.5,53.2c0,2.2-1.8,4-4,4c-2.2,0-4-1.8-4-4s1.8-4,4-4C88.8,49.1,90.5,51,90.5,53.2L90.5,53.2z M76.9,53.2
		c0,5.4,4.3,9.7,9.7,9.7c5.4,0,9.7-4.3,9.7-9.7s-4.3-9.7-9.7-9.7C81.2,43.5,76.9,47.8,76.9,53.2"/>
	<g>
		<path class="st0" d="M88.3,127.7c1.3,0.7,2.2,2,2.2,3.5c0,2.2-1.8,4-4,4c-2.2,0-4-1.8-4-4c0-1.5,0.9-2.9,2.2-3.5v-6
			c-4.5,0.8-7.9,4.8-7.9,9.5c0,5.4,4.3,9.7,9.7,9.7c5.4,0,9.7-4.3,9.7-9.7c0-4.7-3.4-8.7-7.9-9.5V127.7"/>
		<polyline class="st0" points="77.2,226.9 77.2,245.4 82.9,245.4 82.9,239.1 95.9,239.1 95.9,233.2 82.9,233.2 82.9,226.9 
			77.2,226.9 		"/>
	</g>
</g>
</svg>
