<svg xmlns="http://www.w3.org/2000/svg" xmlns:xlink="http://www.w3.org/1999/xlink" viewBox="0 0 580 53.33"><defs><style>.cls-1{fill:none;}.cls-2{fill:#b32c2e;}.cls-3{clip-path:url(#clip-path);}</style><clipPath id="clip-path"><rect class="cls-1" width="580" height="53.33"/></clipPath></defs><title>Asset 2</title><g id="Layer_2" data-name="Layer 2"><g id="Layer_1-2" data-name="Layer 1"><path class="cls-2" d="M199.85,52.58c0,.38-.13.38-.38.38H194.8c-.25,0-.38,0-.38-.38V51.7c0-.38.13-.38.38-.38h1.13V42.87h-1.26v1.64c0,.25-.13.25-.25.25h-1c-.25,0-.25,0-.25-.25V41.23c0-.25,0-.25.25-.25H201c.25,0,.25,0,.25.25v3.28c0,.25-.13.25-.25.25h-1c-.25,0-.25,0-.25-.25V42.87h-1.26v8.45h1.13c.25,0,.38,0,.38.38v.88"/><path class="cls-2" d="M218,52.58c0,.38,0,.38-.38.38h-7.06c-.25,0-.38,0-.38-.38V51.7c0-.38.13-.38.38-.38h.88v-8.7h-.88c-.25,0-.38,0-.38-.38v-1c0-.38.13-.38.38-.38h7.06c.25,0,.38,0,.38.25v2.65c0,.38-.13.38-.38.38h-1.13c-.25,0-.38,0-.38-.38v-.88h-2.27v2.9h3c.38,0,.38,0,.38.38v1.13c0,.38-.13.38-.38.38h-3v3.4h2.27V49.8c0-.25,0-.38.38-.38h1.13c.38,0,.38,0,.38.38v2.77"/><path class="cls-2" d="M235.4,52.2c0,.5-1.51,1-3,1-3.28,0-4.79-2-4.79-6.18s1.51-6.43,4.79-6.43c1.26,0,2.9.5,2.9,1.13v2.4c0,.25-.13.25-.25.25h-1.26c-.25,0-.25,0-.25-.25V42.62a2.15,2.15,0,0,0-.88-.13c-1.64,0-2.4,1-2.4,4s.38,4.79,2.52,4.79a1.87,1.87,0,0,0,.88-.13V49.55c0-.25,0-.25.25-.25h1.26c.25,0,.25.13.25.25V52.2"/><path class="cls-2" d="M255.33,52.58c0,.38-.13.38-.38.38h-4.16c-.25,0-.38,0-.38-.38V51.7c0-.38.13-.38.38-.38h.88V47.79h-3.4v3.53h.88c.25,0,.38,0,.38.38v1c0,.38-.13.38-.38.38H245c-.25,0-.38,0-.38-.38v-1c0-.38.13-.38.38-.38h.88v-8.7H245c-.25,0-.38,0-.38-.38v-1c0-.38.13-.38.38-.38h4.16c.25,0,.38,0,.38.38v1c0,.38-.13.38-.38.38h-.88v3.15h3.4V42.62h-.88c-.25,0-.38,0-.38-.38v-1c0-.38.13-.38.38-.38h4.16c.25,0,.38,0,.38.38v1c0,.38-.13.38-.38.38h-.88v8.7h.88c.25,0,.38,0,.38.38v.88"/><path class="cls-2" d="M274.11,52.58c0,.38,0,.38-.38.38H272.6c-.25,0-.25,0-.38-.25l-3.28-6.05a9.73,9.73,0,0,1-1-2.4h0c0,.63.13,1.13.13,1.89v5h.88c.25,0,.38,0,.38.38v1c0,.38-.13.38-.38.38h-3.78c-.25,0-.38,0-.38-.38V51.7c0-.38.13-.38.38-.38H266v-8.7h-.88c-.25,0-.38,0-.38-.38v-1c0-.38.13-.38.38-.38h2.65c.25,0,.25,0,.38.25l2.9,5.42a8.09,8.09,0,0,1,1,2.52h0c0-.5-.13-1.77-.13-2.27V42.49h-.88c-.25,0-.38,0-.38-.38v-1c0-.38.13-.38.38-.38h3.78c.25,0,.38,0,.38.38v1c0,.38-.13.38-.38.38H274V52.58"/><path class="cls-2" d="M290.63,47c0-2.77-.5-4.54-1.89-4.54s-1.89,1.77-1.89,4.54.5,4.41,1.89,4.41,1.89-1.77,1.89-4.41Zm-1.89,6.3c-2.77,0-4.41-2-4.41-6.3s1.64-6.3,4.41-6.3,4.41,2,4.41,6.3-1.64,6.3-4.41,6.3"/><path class="cls-2" d="M303.87,42.62H303c-.25,0-.38,0-.38-.38v-1c0-.38.13-.38.38-.38h4.16c.25,0,.38,0,.38.38v1c0,.38-.13.38-.38.38h-1v8.45h2.52l.38-1.39c0-.25.13-.38.25-.38h.25l1.13.25c.25,0,.38.13.38.25v.25l-.5,2.52a.33.33,0,0,1-.38.38h-7.06c-.25,0-.38,0-.38-.38V51.7c0-.38.13-.38.38-.38H304v-8.7"/><path class="cls-2" d="M326.31,47c0-2.77-.5-4.54-1.89-4.54s-1.89,1.77-1.89,4.54.5,4.41,1.89,4.41,1.89-1.77,1.89-4.41Zm-1.89,6.3c-2.77,0-4.41-2-4.41-6.3s1.64-6.3,4.41-6.3,4.41,2,4.41,6.3-1.64,6.3-4.41,6.3"/><path class="cls-2" d="M346.61,51.95c0,.76-2,1.39-3.53,1.39-3.15,0-4.67-2-4.67-6.3s1.64-6.43,4.67-6.43c1.39,0,3.28.5,3.28,1.26v2.27c0,.25,0,.25-.25.25h-1.26c-.25,0-.25,0-.25-.25V42.74a3.68,3.68,0,0,0-1.13-.25c-1.77,0-2.4,1.64-2.4,4.41s.5,4.54,2.4,4.54a5.13,5.13,0,0,0,1.26-.25V48.42h-1.26c-.25,0-.38,0-.38-.38V47c0-.38.13-.38.38-.38h4.29c.25,0,.38,0,.38.38v1c0,.38-.13.38-.38.38h-.88v3.53"/><path class="cls-2" d="M363.89,52.58c0,.38-.13.38-.38.38h-4.79c-.25,0-.38,0-.38-.38V51.7c0-.38.13-.38.38-.38h1.13V48l-2.77-5.42h-.5c-.25,0-.25,0-.25-.25V41.23c0-.25,0-.25.25-.25h2c.25,0,.25,0,.38.25L360.36,44a13.12,13.12,0,0,1,.76,2h0a6.59,6.59,0,0,1,.76-2l1.39-2.77c.13-.25.13-.25.38-.25h1.89c.25,0,.25,0,.25.25v1.13c0,.25,0,.25-.25.25H365L362.37,48v3.28h1.13c.25,0,.38,0,.38.38v.88"/><path class="cls-2" d="M399.7,52.58c0,.38-.13.38-.38.38h-3.66c-.25,0-.38,0-.38-.38V51.7c0-.38.13-.38.38-.38h.76l-.13-4.67V43.88h0a22,22,0,0,1-.63,2.77l-1,3.4c-.13.25-.13.25-.38.25h-1.13c-.25,0-.25,0-.38-.25l-1-3.4a22,22,0,0,1-.63-2.77h0v2.77L391,51.32h.76c.25,0,.38,0,.38.38v1c0,.38-.13.38-.38.38H388.1c-.25,0-.38,0-.38-.38v-1c0-.38.13-.38.38-.38h.76l.38-8.7h-.88c-.25,0-.38,0-.38-.38v-1c0-.38.13-.38.38-.38h3c.25,0,.25,0,.38.25l1.39,4.41a17.2,17.2,0,0,1,.5,2.14h0c.13-.63.25-1.26.5-2.14l1.39-4.41c.13-.25.13-.25.38-.25h3c.25,0,.38,0,.38.38v1c0,.38-.13.38-.38.38h-.88l.38,8.7h.76c.25,0,.38,0,.38.38v.88"/><path class="cls-2" d="M416.72,52.58c0,.38,0,.38-.38.38h-7.06c-.25,0-.38,0-.38-.38V51.7c0-.38.13-.38.38-.38h.88v-8.7h-.88c-.25,0-.38,0-.38-.38v-1c0-.38.13-.38.38-.38h7.06c.25,0,.38,0,.38.25v2.65c0,.38-.13.38-.38.38H415.2c-.25,0-.38,0-.38-.38v-.88h-2.27v2.9h3c.38,0,.38,0,.38.38v1.13c0,.38-.13.38-.38.38h-3v3.4h2.27V49.8c0-.25,0-.38.38-.38h1.13c.38,0,.38,0,.38.38v2.77"/><path class="cls-2" d="M434.12,52.58c0,.38,0,.38-.38.38h-7.06c-.25,0-.38,0-.38-.38V51.7c0-.38.13-.38.38-.38h.88v-8.7h-.88c-.25,0-.38,0-.38-.38v-1c0-.38.13-.38.38-.38h7.06c.25,0,.38,0,.38.25v2.65c0,.38-.13.38-.38.38h-1.26c-.25,0-.38,0-.38-.38v-.88H430v2.9h3c.38,0,.38,0,.38.38v1.13c0,.38-.13.38-.38.38h-3v3.4h2.27V49.8c0-.25,0-.38.38-.38h1.13c.38,0,.38,0,.38.38v2.77"/><path class="cls-2" d="M450.26,52.58c0,.38-.13.38-.38.38h-4.67c-.25,0-.38,0-.38-.38V51.7c0-.38.13-.38.38-.38h1.13V42.87h-1.26v1.64c0,.25-.13.25-.25.25h-1c-.25,0-.25,0-.25-.25V41.23c0-.25,0-.25.25-.25h7.57c.25,0,.25,0,.25.25v3.28c0,.25-.13.25-.25.25h-1c-.25,0-.25,0-.25-.25V42.87h-1.26v8.45H450c.25,0,.38,0,.38.38v.88"/><path class="cls-2" d="M465.64,42.74a2.52,2.52,0,0,0-1.13-.25,1.46,1.46,0,0,0-1.64,1.39c0,1.39,2,1.64,3.66,2.77a3.62,3.62,0,0,1-2.27,6.56c-1.26,0-3.66-.38-3.66-1.13V49.43c0-.25,0-.25.25-.25h1.26c.25,0,.25,0,.25.25v1.64a3.87,3.87,0,0,0,1.64.38,1.47,1.47,0,0,0,1.64-1.64c0-1.51-1.77-1.77-3.53-2.77a2.85,2.85,0,0,1-1.51-2.77c0-2.52,1.77-3.53,3.91-3.53,1.26,0,3.15.5,3.15,1.13v2.4c0,.25-.13.25-.25.25h-1.26c-.25,0-.25,0-.25-.25V42.74"/><path class="cls-2" d="M495.4,42.74a2.52,2.52,0,0,0-1.13-.25,1.46,1.46,0,0,0-1.64,1.39c0,1.39,2,1.64,3.66,2.77A3.62,3.62,0,0,1,494,53.21c-1.26,0-3.66-.38-3.66-1.13V49.43c0-.25,0-.25.25-.25h1.26c.25,0,.25,0,.25.25v1.64a3.87,3.87,0,0,0,1.64.38,1.47,1.47,0,0,0,1.64-1.64c0-1.51-1.77-1.77-3.53-2.77a2.85,2.85,0,0,1-1.51-2.77c0-2.52,1.77-3.53,3.91-3.53,1.26,0,3.15.5,3.15,1.13v2.4c0,.25-.13.25-.25.25H495.9c-.25,0-.25,0-.25-.25V42.74"/><path class="cls-2" d="M511,46.27c1,0,2-.13,2-1.89,0-1.51-.88-1.64-1.89-1.64h-.76v3.53Zm1,6.3c0,.38-.13.38-.38.38h-4.41c-.25,0-.38,0-.38-.38V51.7c0-.38.13-.38.38-.38h.88v-8.7h-.88c-.25,0-.38,0-.38-.38v-1c0-.38.13-.38.38-.38h4.16c1.39,0,4,0,4,3.28a3.72,3.72,0,0,1-4,3.91h-.88v3.15h1.13c.25,0,.38,0,.38.38v1"/><path class="cls-2" d="M529.57,52.58c0,.38-.13.38-.38.38H525c-.25,0-.38,0-.38-.38V51.7c0-.38.13-.38.38-.38h.88v-8.7H525c-.25,0-.38,0-.38-.38v-1c0-.38.13-.38.38-.38h4.16c.25,0,.38,0,.38.38v1c0,.38-.13.38-.38.38h-.88v8.7h.88c.25,0,.38,0,.38.38v.88"/><path class="cls-2" d="M543.06,46.15c1.13,0,2.14-.13,2.14-1.77s-1-1.64-1.89-1.64h-.63v3.4h.38Zm5.8,6.43c0,.38-.13.38-.38.38h-2.27c-.25,0-.25,0-.38-.25L543.43,48h-.88v3.28h.88c.25,0,.38,0,.38.38v1c0,.38-.13.38-.38.38h-4c-.25,0-.38,0-.38-.38v-1c0-.38.13-.38.38-.38h.88v-8.7h-.88c-.25,0-.38,0-.38-.38v-1c0-.38.13-.38.38-.38h4.16c1.39,0,4,.13,4,3.4a3.35,3.35,0,0,1-2,3.28l2.14,3.66h.76c.25,0,.38,0,.38.38v1"/><path class="cls-2" d="M562.6,52.58c0,.38-.13.38-.38.38h-4.16c-.25,0-.38,0-.38-.38V51.7c0-.38.13-.38.38-.38h.88v-8.7h-.88c-.25,0-.38,0-.38-.38v-1c0-.38.13-.38.38-.38h4.16c.25,0,.38,0,.38.38v1c0,.38-.13.38-.38.38h-.88v8.7h.88c.25,0,.38,0,.38.38v.88"/><path class="cls-2" d="M578.61,52.58c0,.38-.13.38-.38.38h-4.67c-.25,0-.38,0-.38-.38V51.7c0-.38.13-.38.38-.38h1.13V42.87h-1.26v1.64c0,.25-.13.25-.25.25h-1c-.25,0-.25,0-.25-.25V41.23c0-.25,0-.25.25-.25h7.57c.25,0,.25,0,.25.25v3.28c0,.25-.13.25-.25.25h-1c-.25,0-.25,0-.25-.25V42.87h-1.26v8.45h1.13c.25,0,.38,0,.38.38v.88"/><path class="cls-2" d="M75.53,17.27a5,5,0,1,1,5-5,5.06,5.06,0,0,1-5,5ZM75.53,0A12.16,12.16,0,0,0,63.3,12.23a12.23,12.23,0,1,0,24.46,0A12.16,12.16,0,0,0,75.53,0"/><path class="cls-2" d="M122.05,14.5a5,5,0,1,1-4.41-7.31A4.92,4.92,0,0,1,122.05,10h7.57a12.23,12.23,0,1,0,0,4.54h-7.57"/><path class="cls-2" d="M242.47,17.27a5,5,0,1,1,5-5,5.06,5.06,0,0,1-5,5Zm0-17.27a12.16,12.16,0,0,0-12.23,12.23,12.23,12.23,0,0,0,24.46,0A12.16,12.16,0,0,0,242.47,0"/><g class="cls-3"><path class="cls-2" d="M148.53,14.5a5,5,0,1,1-4.41-7.31A4.92,4.92,0,0,1,148.53,10h7.57a12.23,12.23,0,1,0,0,4.54h-7.57"/></g><g class="cls-3"><polyline class="cls-2" points="23.45 0.38 0 0.38 0 7.57 8.07 7.57 8.07 23.96 15.38 23.96 15.38 7.57 23.45 7.57 23.45 0.38"/></g></g></g></svg>