<?xml version="1.0" encoding="utf-8"?>
<!-- Generator: Adobe Illustrator 23.0.6, SVG Export Plug-In . SVG Version: 6.00 Build 0)  -->
<svg version="1.1" id="Ebene_1" xmlns="http://www.w3.org/2000/svg" xmlns:xlink="http://www.w3.org/1999/xlink" x="0px" y="0px"
	 viewBox="0 0 460 42.4" style="enable-background:new 0 0 460 42.4;" xml:space="preserve">
<style type="text/css">
	.st0{fill:#FFFFFF;}
</style>
<g>
	<path class="st0" d="M158.5,41.5c0,0.3-0.1,0.3-0.3,0.3h-3.7c-0.2,0-0.3,0-0.3-0.3v-0.8c0-0.3,0.1-0.3,0.3-0.3h0.9v-6.7h-1V35
		c0,0.2-0.1,0.2-0.2,0.2h-0.8c-0.2,0-0.2,0-0.2-0.2v-2.6c0-0.2,0-0.2,0.2-0.2h6c0.2,0,0.2,0,0.2,0.2V35c0,0.2-0.1,0.2-0.2,0.2h-0.8
		c-0.2,0-0.2,0-0.2-0.2v-1.3h-1v6.7h0.9c0.2,0,0.3,0,0.3,0.3v0.8"/>
	<path class="st0" d="M172.9,41.5c0,0.3,0,0.3-0.3,0.3H167c-0.2,0-0.3,0-0.3-0.3v-0.8c0-0.3,0.1-0.3,0.3-0.3h0.7v-6.9H167
		c-0.2,0-0.3,0-0.3-0.3v-0.8c0-0.3,0.1-0.3,0.3-0.3h5.6c0.2,0,0.3,0,0.3,0.2v2.1c0,0.3-0.1,0.3-0.3,0.3h-0.9c-0.2,0-0.3,0-0.3-0.3
		v-0.9h-1.8v2.3h2.4c0.3,0,0.3,0,0.3,0.3V37c0,0.3-0.1,0.3-0.3,0.3h-2.4V40h1.8v-1c0-0.2,0-0.3,0.3-0.3h0.9c0.3,0,0.3,0,0.3,0.3
		V41.5"/>
	<path class="st0" d="M186.7,41.2c0,0.4-1.2,0.8-2.4,0.8c-2.6,0-3.8-1.6-3.8-4.9c0-3.2,1.2-5.1,3.8-5.1c1,0,2.3,0.4,2.3,0.9v1.9
		c0,0.2-0.1,0.2-0.2,0.2h-1c-0.2,0-0.2,0-0.2-0.2v-1.2c-0.2-0.1-0.5-0.1-0.7-0.1c-1.3,0-1.9,0.8-1.9,3.2s0.3,3.8,2,3.8
		c0.3,0,0.5,0,0.7-0.1v-1.3c0-0.2,0-0.2,0.2-0.2h1c0.2,0,0.2,0.1,0.2,0.2V41.2"/>
	<path class="st0" d="M202.5,41.5c0,0.3-0.1,0.3-0.3,0.3h-3.3c-0.2,0-0.3,0-0.3-0.3v-0.8c0-0.3,0.1-0.3,0.3-0.3h0.7v-2.8h-2.7v2.8
		h0.7c0.2,0,0.3,0,0.3,0.3v0.8c0,0.3-0.1,0.3-0.3,0.3h-3.3c-0.2,0-0.3,0-0.3-0.3v-0.8c0-0.3,0.1-0.3,0.3-0.3h0.7v-6.9h-0.7
		c-0.2,0-0.3,0-0.3-0.3v-0.8c0-0.3,0.1-0.3,0.3-0.3h3.3c0.2,0,0.3,0,0.3,0.3v0.8c0,0.3-0.1,0.3-0.3,0.3h-0.7V36h2.7v-2.5h-0.7
		c-0.2,0-0.3,0-0.3-0.3v-0.8c0-0.3,0.1-0.3,0.3-0.3h3.3c0.2,0,0.3,0,0.3,0.3v0.8c0,0.3-0.1,0.3-0.3,0.3h-0.7v6.9h0.7
		c0.2,0,0.3,0,0.3,0.3V41.5"/>
	<path class="st0" d="M217.4,41.5c0,0.3,0,0.3-0.3,0.3h-0.9c-0.2,0-0.2,0-0.3-0.2l-2.6-4.8c-0.4-0.8-0.6-1.1-0.8-1.9l0,0
		c0,0.5,0.1,0.9,0.1,1.5v4h0.7c0.2,0,0.3,0,0.3,0.3v0.8c0,0.3-0.1,0.3-0.3,0.3h-3c-0.2,0-0.3,0-0.3-0.3v-0.8c0-0.3,0.1-0.3,0.3-0.3
		h0.7v-6.9h-0.7c-0.2,0-0.3,0-0.3-0.3v-0.8c0-0.3,0.1-0.3,0.3-0.3h2.1c0.2,0,0.2,0,0.3,0.2l2.3,4.3c0.4,0.7,0.7,1.4,0.8,2l0,0
		c0-0.4-0.1-1.4-0.1-1.8v-3.4H215c-0.2,0-0.3,0-0.3-0.3v-0.8c0-0.3,0.1-0.3,0.3-0.3h3c0.2,0,0.3,0,0.3,0.3v0.8
		c0,0.3-0.1,0.3-0.3,0.3h-0.7L217.4,41.5"/>
	<path class="st0" d="M230.5,37c0-2.2-0.4-3.6-1.5-3.6c-1,0-1.5,1.4-1.5,3.6s0.4,3.5,1.5,3.5S230.5,39.2,230.5,37L230.5,37z M229,42
		c-2.2,0-3.5-1.6-3.5-5s1.3-5,3.5-5c2.1,0,3.5,1.6,3.5,5S231.2,42,229,42"/>
	<path class="st0" d="M241,33.6h-0.7c-0.2,0-0.3,0-0.3-0.3v-0.8c0-0.3,0.1-0.3,0.3-0.3h3.3c0.2,0,0.3,0,0.3,0.3v0.8
		c0,0.3-0.1,0.3-0.3,0.3h-0.8v6.7h2l0.3-1.1c0-0.2,0.1-0.3,0.2-0.3s0.1,0,0.2,0l0.9,0.2c0.2,0,0.3,0.1,0.3,0.2c0,0.1,0,0.1,0,0.2
		l-0.4,2c0,0.2-0.1,0.3-0.3,0.3h-5.6c-0.2,0-0.3,0-0.3-0.3v-0.8c0-0.3,0.1-0.3,0.3-0.3h0.7v-6.8"/>
	<path class="st0" d="M258.8,37c0-2.2-0.4-3.6-1.5-3.6c-1,0-1.5,1.4-1.5,3.6s0.4,3.5,1.5,3.5C258.4,40.5,258.8,39.2,258.8,37
		L258.8,37z M257.3,42c-2.2,0-3.5-1.6-3.5-5s1.3-5,3.5-5c2.2,0,3.5,1.6,3.5,5S259.5,42,257.3,42"/>
	<path class="st0" d="M274.9,40.9c0,0.6-1.6,1.1-2.8,1.1c-2.5,0-3.7-1.6-3.7-5c0-3.3,1.3-5.1,3.7-5.1c1.1,0,2.6,0.4,2.6,1v1.8
		c0,0.2,0,0.2-0.2,0.2h-1c-0.2,0-0.2,0-0.2-0.2v-1.1c-0.3-0.1-0.6-0.2-0.9-0.2c-1.4,0-1.9,1.3-1.9,3.5s0.4,3.6,1.9,3.6
		c0.5,0,0.9-0.2,1-0.2v-2.2h-1c-0.2,0-0.3,0-0.3-0.3V37c0-0.3,0.1-0.3,0.3-0.3h3.4c0.2,0,0.3,0,0.3,0.3v0.8c0,0.3-0.1,0.3-0.3,0.3
		h-0.7v2.8"/>
	<path class="st0" d="M288.6,41.5c0,0.3-0.1,0.3-0.3,0.3h-3.8c-0.2,0-0.3,0-0.3-0.3v-0.8c0-0.3,0.1-0.3,0.3-0.3h0.9v-2.6l-2.2-4.3
		h-0.4c-0.2,0-0.2,0-0.2-0.2v-0.9c0-0.2,0-0.2,0.2-0.2h1.6c0.2,0,0.2,0,0.3,0.2l1.1,2.2c0.2,0.5,0.5,1.1,0.6,1.6l0,0
		c0.1-0.5,0.3-1.1,0.6-1.6l1.1-2.2c0.1-0.2,0.1-0.2,0.3-0.2h1.5c0.2,0,0.2,0,0.2,0.2v0.9c0,0.2,0,0.2-0.2,0.2h-0.4l-2.1,4.3v2.6h0.9
		c0.2,0,0.3,0,0.3,0.3L288.6,41.5"/>
	<path class="st0" d="M317,41.5c0,0.3-0.1,0.3-0.3,0.3h-2.9c-0.2,0-0.3,0-0.3-0.3v-0.8c0-0.3,0.1-0.3,0.3-0.3h0.6l-0.1-3.7
		c0-0.5,0-1.7,0-2.2l0,0c-0.1,0.5-0.3,1.7-0.5,2.2l-0.8,2.7c-0.1,0.2-0.1,0.2-0.3,0.2h-0.9c-0.2,0-0.2,0-0.3-0.2l-0.8-2.7
		c-0.2-0.5-0.4-1.7-0.5-2.2l0,0c0,0.5,0,1.7,0,2.2l-0.2,3.7h0.6c0.2,0,0.3,0,0.3,0.3v0.8c0,0.3-0.1,0.3-0.3,0.3h-2.9
		c-0.2,0-0.3,0-0.3-0.3v-0.8c0-0.3,0.1-0.3,0.3-0.3h0.6l0.3-6.9H308c-0.2,0-0.3,0-0.3-0.3v-0.8c0-0.3,0.1-0.3,0.3-0.3h2.4
		c0.2,0,0.2,0,0.3,0.2l1.1,3.5c0.2,0.7,0.3,1.1,0.4,1.7l0,0c0.1-0.5,0.2-1,0.4-1.7l1.1-3.5c0.1-0.2,0.1-0.2,0.3-0.2h2.4
		c0.2,0,0.3,0,0.3,0.3v0.8c0,0.3-0.1,0.3-0.3,0.3h-0.7l0.3,6.9h0.6c0.2,0,0.3,0,0.3,0.3L317,41.5"/>
	<path class="st0" d="M330.5,41.5c0,0.3,0,0.3-0.3,0.3h-5.6c-0.2,0-0.3,0-0.3-0.3v-0.8c0-0.3,0.1-0.3,0.3-0.3h0.7v-6.9h-0.7
		c-0.2,0-0.3,0-0.3-0.3v-0.8c0-0.3,0.1-0.3,0.3-0.3h5.6c0.2,0,0.3,0,0.3,0.2v2.1c0,0.3-0.1,0.3-0.3,0.3h-0.9c-0.2,0-0.3,0-0.3-0.3
		v-0.9h-1.8v2.3h2.4c0.3,0,0.3,0,0.3,0.3V37c0,0.3-0.1,0.3-0.3,0.3h-2.4V40h1.8v-1c0-0.2,0-0.3,0.3-0.3h0.9c0.3,0,0.3,0,0.3,0.3
		V41.5"/>
	<path class="st0" d="M344.3,41.5c0,0.3,0,0.3-0.3,0.3h-5.6c-0.2,0-0.3,0-0.3-0.3v-0.8c0-0.3,0.1-0.3,0.3-0.3h0.7v-6.9h-0.7
		c-0.2,0-0.3,0-0.3-0.3v-0.8c0-0.3,0.1-0.3,0.3-0.3h5.6c0.2,0,0.3,0,0.3,0.2v2.1c0,0.3-0.1,0.3-0.3,0.3h-1c-0.2,0-0.3,0-0.3-0.3
		v-0.9H341v2.3h2.4c0.3,0,0.3,0,0.3,0.3V37c0,0.3-0.1,0.3-0.3,0.3H341V40h1.8v-1c0-0.2,0-0.3,0.3-0.3h0.9c0.3,0,0.3,0,0.3,0.3V41.5"
		/>
	<path class="st0" d="M357.1,41.5c0,0.3-0.1,0.3-0.3,0.3h-3.7c-0.2,0-0.3,0-0.3-0.3v-0.8c0-0.3,0.1-0.3,0.3-0.3h0.9v-6.7h-1V35
		c0,0.2-0.1,0.2-0.2,0.2H352c-0.2,0-0.2,0-0.2-0.2v-2.6c0-0.2,0-0.2,0.2-0.2h6c0.2,0,0.2,0,0.2,0.2V35c0,0.2-0.1,0.2-0.2,0.2h-0.8
		c-0.2,0-0.2,0-0.2-0.2v-1.3h-1v6.7h0.9c0.2,0,0.3,0,0.3,0.3v0.8"/>
	<path class="st0" d="M369.3,33.7c-0.2-0.1-0.5-0.2-0.9-0.2c-0.6,0-1.3,0.3-1.3,1.1c0,1.1,1.6,1.3,2.9,2.2c0.7,0.5,1.2,1.3,1.2,2.3
		c0,1.8-1.3,2.9-3,2.9c-1,0-2.9-0.3-2.9-0.9V39c0-0.2,0-0.2,0.2-0.2h1c0.2,0,0.2,0,0.2,0.2v1.3c0.2,0.1,0.7,0.3,1.3,0.3
		c0.8,0,1.3-0.4,1.3-1.3c0-1.2-1.4-1.4-2.8-2.2c-0.7-0.4-1.2-1-1.2-2.2c0-2,1.4-2.8,3.1-2.8c1,0,2.5,0.4,2.5,0.9v1.9
		c0,0.2-0.1,0.2-0.2,0.2h-1c-0.2,0-0.2,0-0.2-0.2v-1.2"/>
	<path class="st0" d="M392.9,33.7c-0.2-0.1-0.5-0.2-0.9-0.2c-0.6,0-1.3,0.3-1.3,1.1c0,1.1,1.6,1.3,2.9,2.2c0.7,0.5,1.2,1.3,1.2,2.3
		c0,1.8-1.3,2.9-3,2.9c-1,0-2.9-0.3-2.9-0.9V39c0-0.2,0-0.2,0.2-0.2h1c0.2,0,0.2,0,0.2,0.2v1.3c0.2,0.1,0.7,0.3,1.3,0.3
		c0.8,0,1.3-0.4,1.3-1.3c0-1.2-1.4-1.4-2.8-2.2c-0.7-0.4-1.2-1-1.2-2.2c0-2,1.5-2.8,3.1-2.8c1,0,2.5,0.4,2.5,0.9v1.9
		c0,0.2-0.1,0.2-0.2,0.2h-1c-0.2,0-0.2,0-0.2-0.2v-1.2"/>
	<path class="st0" d="M405.3,36.5c0.8,0,1.6-0.1,1.6-1.5c0-1.2-0.7-1.3-1.5-1.3h-0.6v2.8H405.3L405.3,36.5z M406.1,41.5
		c0,0.3-0.1,0.3-0.3,0.3h-3.5c-0.2,0-0.3,0-0.3-0.3v-0.8c0-0.3,0.1-0.3,0.3-0.3h0.7v-6.9h-0.7c-0.2,0-0.3,0-0.3-0.3v-0.8
		c0-0.3,0.1-0.3,0.3-0.3h3.3c1.1,0,3.2,0,3.2,2.6c0,2.3-1.7,3.1-3.2,3.1h-0.7v2.6h0.9c0.2,0,0.3,0,0.3,0.3L406.1,41.5"/>
	<path class="st0" d="M420,41.5c0,0.3-0.1,0.3-0.3,0.3h-3.3c-0.2,0-0.3,0-0.3-0.3v-0.8c0-0.3,0.1-0.3,0.3-0.3h0.7v-6.9h-0.7
		c-0.2,0-0.3,0-0.3-0.3v-0.8c0-0.3,0.1-0.3,0.3-0.3h3.3c0.2,0,0.3,0,0.3,0.3v0.8c0,0.3-0.1,0.3-0.3,0.3H419v6.9h0.7
		c0.2,0,0.3,0,0.3,0.3V41.5"/>
	<path class="st0" d="M430.7,36.4c0.9,0,1.7-0.1,1.7-1.4c0-1.2-0.8-1.3-1.5-1.3h-0.5v2.7H430.7L430.7,36.4z M435.3,41.5
		c0,0.3-0.1,0.3-0.3,0.3h-1.8c-0.2,0-0.2,0-0.3-0.2l-1.9-3.7h-0.7v2.5h0.7c0.2,0,0.3,0,0.3,0.3v0.8c0,0.3-0.1,0.3-0.3,0.3h-3.2
		c-0.2,0-0.3,0-0.3-0.3v-0.8c0-0.3,0.1-0.3,0.3-0.3h0.7v-6.9h-0.7c-0.2,0-0.3,0-0.3-0.3v-0.8c0-0.3,0.1-0.3,0.3-0.3h3.3
		c1.1,0,3.2,0.1,3.2,2.7c0,1.8-1.1,2.3-1.6,2.6l1.7,2.9h0.6c0.2,0,0.3,0,0.3,0.3L435.3,41.5"/>
	<path class="st0" d="M446.2,41.5c0,0.3-0.1,0.3-0.3,0.3h-3.3c-0.2,0-0.3,0-0.3-0.3v-0.8c0-0.3,0.1-0.3,0.3-0.3h0.7v-6.9h-0.7
		c-0.2,0-0.3,0-0.3-0.3v-0.8c0-0.3,0.1-0.3,0.3-0.3h3.3c0.2,0,0.3,0,0.3,0.3v0.8c0,0.3-0.1,0.3-0.3,0.3h-0.7v6.9h0.7
		c0.2,0,0.3,0,0.3,0.3V41.5"/>
	<path class="st0" d="M458.9,41.5c0,0.3-0.1,0.3-0.3,0.3h-3.7c-0.2,0-0.3,0-0.3-0.3v-0.8c0-0.3,0.1-0.3,0.3-0.3h0.9v-6.7h-1V35
		c0,0.2-0.1,0.2-0.2,0.2h-0.8c-0.2,0-0.2,0-0.2-0.2v-2.6c0-0.2,0-0.2,0.2-0.2h6c0.2,0,0.2,0,0.2,0.2V35c0,0.2-0.1,0.2-0.2,0.2H459
		c-0.2,0-0.2,0-0.2-0.2v-1.3h-1v6.7h0.9c0.2,0,0.3,0,0.3,0.3L458.9,41.5"/>
	<path class="st0" d="M59.9,13.4c-2.2,0-4-1.8-4-4s1.8-4,4-4s4,1.8,4,4S62.1,13.4,59.9,13.4L59.9,13.4z M59.9-0.2
		c-5.4,0-9.7,4.3-9.7,9.7s4.3,9.7,9.7,9.7c5.4,0,9.7-4.3,9.7-9.7C69.6,4.1,65.3-0.2,59.9-0.2"/>
	<path class="st0" d="M96.8,11.2c-0.7,1.3-2,2.2-3.5,2.2c-2.2,0-4-1.8-4-4s1.8-4,4-4c1.5,0,2.9,0.9,3.5,2.2h6
		C102,3.1,98-0.3,93.3-0.3c-5.4,0-9.7,4.3-9.7,9.7s4.3,9.7,9.7,9.7c4.7,0,8.7-3.4,9.5-7.9L96.8,11.2"/>
	<path class="st0" d="M192.3,13.4c-2.2,0-4-1.8-4-4s1.8-4,4-4s4,1.8,4,4S194.5,13.4,192.3,13.4L192.3,13.4z M192.3-0.2
		c-5.4,0-9.7,4.3-9.7,9.7s4.3,9.7,9.7,9.7c5.4,0,9.7-4.3,9.7-9.7S197.7-0.2,192.3-0.2"/>
	<g>
		<path class="st0" d="M117.8,11.2c-0.7,1.3-2,2.2-3.5,2.2c-2.2,0-4-1.8-4-4s1.8-4,4-4c1.5,0,2.9,0.9,3.5,2.2h6
			c-0.8-4.5-4.8-7.9-9.5-7.9c-5.4,0-9.7,4.3-9.7,9.7s4.3,9.7,9.7,9.7c4.7,0,8.7-3.4,9.5-7.9L117.8,11.2"/>
		<polyline class="st0" points="18.6,0 0,0 0,5.8 6.4,5.8 6.4,18.8 12.2,18.8 12.2,5.8 18.6,5.8 18.6,0 		"/>
	</g>
</g>
</svg>
